PathFileType	4	(X/Y/Z)	6_coords_data.trc
DataRate	CameraRate	NumFrames	NumMarkers	Units	OrigDataRate	OrigDataStartFrame	OrigNumFrames
30.0	30.0	5	21	m	30.0	34	55
Frame#	Time	THUMB_TIP	THUMB_IP	THUMB_MCP	THUMB_CMC	INDEX_TIP	INDEX_DIP	INDEX_PIP	INDEX_MCP	MIDDLE_TIP	MIDDLE_DIP	MIDDLE_PIP	MIDDLE_MCP	RING_TIP	RING_DIP	RING_PIP	RING_MCP	PINKY_TIP	PINKY_DIP	PINKY_PIP	PINKY_MCP	WRIST
X1	Y1	Z1	X2	Y2	Z2	X3	Y3	Z3	X4	Y4	Z4	X5	Y5	Z5	X6	Y6	Z6	X7	Y7	Z7	X8	Y8	Z8	X9	Y9	Z9	X10	Y10	Z10	X11	Y11	Z11	X12	Y12	Z12	X13	Y13	Z13	X14	Y14	Z14	X15	Y15	Z15	X16	Y16	Z16	X17	Y17	Z17	X18	Y18	Z18	X19	Y19	Z19	X20	Y20	Z20	X21	Y21	Z21
33	1.1	0.01739940071105957	-0.16486700439453125	1.0358499755859376	0.020701299667358397	-0.13972000122070313	1.0486800537109375	0.008370719909667968	-0.11778500366210938	1.068989990234375	0.001695029973983764	-0.08128929901123047	1.08272998046875	0.054392398834228514	-0.11971299743652344	0.9548179931640625	0.042208499908447265	-0.11499500274658203	0.9743679809570313	0.029259599685668946	-0.10928199768066406	0.9952349853515625	0.007856500148773194	-0.09720809936523438	1.0281600341796875	0.06348440170288086	-0.07586380004882813	0.9403289794921875	0.04667309951782227	-0.0765259017944336	0.9595670166015625	0.02611630058288574	-0.07649620056152344	0.984135986328125	0.003358500003814697	-0.07331300354003906	1.0196900024414062	0.06413890075683594	-0.03818899917602539	0.9480130004882813	0.04895259857177734	-0.04135400009155273	0.9671900024414063	0.031281600952148436	-0.04540859985351563	0.9902470092773438	0.007062389850616455	-0.050737598419189456	1.0233800048828126	0.05819580078125	-0.006946710109710694	0.983801025390625	0.04437710189819336	-0.013210300445556641	0.997822021484375	0.030598100662231446	-0.0194817008972168	1.0109400024414064	0.010494999885559082	-0.030903400421142577	1.0318499755859376	-0.023350500106811525	-0.048901798248291016	1.0958499755859374
34	1.1333333333333333	0.01808810043334961	-0.16011000061035155	1.0291700439453124	0.021529600143432616	-0.13561700439453125	1.0433199462890625	0.010052900314331054	-0.11545700073242188	1.0655899658203125	0.002970000028610229	-0.08047769927978515	1.0814599609375	0.05870920181274414	-0.11459500122070312	0.9572420043945312	0.04463669967651367	-0.11146299743652344	0.975552001953125	0.029782199859619142	-0.10732599639892579	0.9954180297851563	0.00654295015335083	-0.09742099761962891	1.027510009765625	0.07027860260009766	-0.07684110260009766	0.9471920166015625	0.05115190124511719	-0.07723770141601563	0.963427978515625	0.02777479934692383	-0.07697959899902344	0.9854149780273438	0.0024916300773620602	-0.07348040008544922	1.0191400146484375	0.07025779724121094	-0.042363700866699217	0.9530859985351563	0.052987300872802734	-0.04425030136108398	0.9697219848632812	0.03275550079345703	-0.0470172004699707	0.9909639892578125	0.006062129974365235	-0.05085720062255859	1.0228400268554687	0.06245199966430664	-0.011792799949645997	0.9860079956054687	0.04704650115966797	-0.016388200759887697	0.998801025390625	0.03170820045471191	-0.02132309913635254	1.0111099853515626	0.01003219985961914	-0.030926300048828126	1.03125	-0.0229773006439209	-0.04848350143432617	1.0955999755859376
35	1.1666666666666667	0.019277900695800782	-0.15681300354003908	1.0261600341796875	0.022697900772094725	-0.1327050018310547	1.0408299560546874	0.0116274995803833	-0.11362000274658203	1.0641300048828124	0.004332870006561279	-0.0794437026977539	1.08072998046875	0.059235599517822264	-0.11366200256347657	0.9582680053710938	0.04446749877929688	-0.11086399841308593	0.97610498046875	0.02903809928894043	-0.10706600189208984	0.99560400390625	0.005865059852600098	-0.09764949798583984	1.027719970703125	0.0729676971435547	-0.07844719696044922	0.9509290161132813	0.05286479949951172	-0.07846649932861328	0.965635986328125	0.028288999557495118	-0.07778929901123047	0.9860130004882812	0.001980990052223205	-0.07369090270996094	1.0191099853515626	0.07313030242919921	-0.04579710006713867	0.9557630004882812	0.05504359817504883	-0.046759498596191405	0.9712360229492187	0.03357160186767578	-0.04850659942626953	0.9913930053710938	0.005658609867095947	-0.05104990005493164	1.0225499877929687	0.06482569885253907	-0.015532999992370606	0.9870579833984375	0.0486161994934082	-0.018922800064086913	0.9990490112304687	0.0325796012878418	-0.022832700729370117	1.011010009765625	0.010244999885559082	-0.03106920051574707	1.0305899658203126	-0.022322000503540038	-0.04790959930419922	1.09543994140625
36	1.2	0.021873699188232423	-0.15544000244140624	1.0260799560546876	0.024771499633789062	-0.13113400268554687	1.0405899658203126	0.013045700073242187	-0.11236799621582032	1.064199951171875	0.005273749828338623	-0.07860209655761718	1.080949951171875	0.059896400451660156	-0.11404499816894531	0.959718017578125	0.04445429992675781	-0.11130400085449219	0.9769149780273437	0.028569299697875975	-0.10756700134277344	0.9959359741210938	0.005597959995269775	-0.09807980346679687	1.028	0.07318009948730468	-0.08004570007324219	0.9522860107421875	0.05275590133666992	-0.07979979705810547	0.966322998046875	0.02785540008544922	-0.07887139892578125	0.986218994140625	0.001541190028190612	-0.07425070190429688	1.019219970703125	0.07356159973144531	-0.04808879852294922	0.9565449829101562	0.055131698608398436	-0.04853620147705078	0.97143701171875	0.03317350006103516	-0.04972420120239258	0.9912139892578125	0.005222020149230957	-0.051542999267578125	1.02225	0.06587300109863281	-0.01839620018005371	0.9876669921875	0.04908380126953125	-0.020778900146484376	0.9988909912109375	0.0326599006652832	-0.023966800689697264	1.0104099731445313	0.009878510475158692	-0.031392799377441404	1.03018994140625	-0.021707500457763672	-0.0475541000366211	1.0955699462890625
37	1.2333333333333334	0.026787500381469726	-0.15351300048828126	1.025780029296875	0.028052999496459962	-0.12917799377441405	1.0406600341796874	0.015191200256347657	-0.11120999908447265	1.06422998046875	0.0063442401885986325	-0.07784110260009766	1.08102001953125	0.06154169845581055	-0.11355999755859375	0.96122998046875	0.04546640014648438	-0.11114800262451172	0.9777550048828125	0.02909469985961914	-0.10769100189208984	0.9961920166015625	0.005886730194091797	-0.09852030181884766	1.028280029296875	0.07474819946289063	-0.08088590240478516	0.954323974609375	0.05390729904174805	-0.08062159729003907	0.9676090087890625	0.028507200241088868	-0.07964219665527343	0.986833984375	0.001735100030899047	-0.07481379699707032	1.0193300170898438	0.07491999816894532	-0.04980559921264648	0.9581229858398438	0.056004199981689456	-0.049932998657226564	0.9721259765625	0.03354890060424805	-0.050725200653076175	0.9912760009765625	0.005154980182647705	-0.051997798919677735	1.0221300048828126	0.06742880249023438	-0.02091819953918457	0.989094970703125	0.05025529861450195	-0.022516700744628908	0.9994609985351562	0.03311470031738281	-0.02502680015563965	1.0103200073242187	0.009923669815063476	-0.03172410011291504	1.0298800048828125	-0.021251499176025392	-0.04750830078125	1.0958499755859374
